%TF.GenerationSoftware,KiCad,Pcbnew,(5.1.10)-1*%
%TF.CreationDate,2022-03-27T02:24:56-07:00*%
%TF.ProjectId,RC_car,52435f63-6172-42e6-9b69-6361645f7063,rev?*%
%TF.SameCoordinates,Original*%
%TF.FileFunction,Soldermask,Top*%
%TF.FilePolarity,Negative*%
%FSLAX46Y46*%
G04 Gerber Fmt 4.6, Leading zero omitted, Abs format (unit mm)*
G04 Created by KiCad (PCBNEW (5.1.10)-1) date 2022-03-27 02:24:56*
%MOMM*%
%LPD*%
G01*
G04 APERTURE LIST*
%ADD10R,1.700000X1.700000*%
%ADD11O,1.700000X1.700000*%
%ADD12R,1.600000X1.600000*%
%ADD13O,1.600000X1.600000*%
G04 APERTURE END LIST*
D10*
%TO.C,IMU1*%
X168452800Y-78003400D03*
D11*
X168452800Y-95783400D03*
X168452800Y-93243400D03*
X168452800Y-88163400D03*
X168452800Y-85623400D03*
X168452800Y-83083400D03*
X168452800Y-90703400D03*
X168452800Y-80543400D03*
%TD*%
%TO.C,RADIO1*%
X168275000Y-107899200D03*
X170815000Y-105359200D03*
D10*
X168275000Y-105359200D03*
D11*
X170815000Y-110439200D03*
X170815000Y-107899200D03*
X168275000Y-110439200D03*
X170815000Y-112979200D03*
X168275000Y-112979200D03*
%TD*%
D12*
%TO.C,Nano1*%
X146685000Y-76835000D03*
D13*
X161925000Y-109855000D03*
X146685000Y-79375000D03*
X161925000Y-107315000D03*
X146685000Y-81915000D03*
X161925000Y-104775000D03*
X146685000Y-84455000D03*
X161925000Y-102235000D03*
X146685000Y-86995000D03*
X161925000Y-99695000D03*
X146685000Y-89535000D03*
X161925000Y-97155000D03*
X146685000Y-92075000D03*
X161925000Y-94615000D03*
X146685000Y-94615000D03*
X161925000Y-92075000D03*
X146685000Y-97155000D03*
X161925000Y-89535000D03*
X146685000Y-99695000D03*
X161925000Y-86995000D03*
X146685000Y-102235000D03*
X161925000Y-84455000D03*
X146685000Y-104775000D03*
X161925000Y-81915000D03*
X146685000Y-107315000D03*
X161925000Y-79375000D03*
X146685000Y-109855000D03*
X161925000Y-76835000D03*
X146685000Y-112395000D03*
X161925000Y-112395000D03*
%TD*%
%TO.C,C1*%
G36*
G01*
X171170000Y-73820000D02*
X171170000Y-74770000D01*
G75*
G02*
X170920000Y-75020000I-250000J0D01*
G01*
X170245000Y-75020000D01*
G75*
G02*
X169995000Y-74770000I0J250000D01*
G01*
X169995000Y-73820000D01*
G75*
G02*
X170245000Y-73570000I250000J0D01*
G01*
X170920000Y-73570000D01*
G75*
G02*
X171170000Y-73820000I0J-250000D01*
G01*
G37*
G36*
G01*
X169095000Y-73820000D02*
X169095000Y-74770000D01*
G75*
G02*
X168845000Y-75020000I-250000J0D01*
G01*
X168170000Y-75020000D01*
G75*
G02*
X167920000Y-74770000I0J250000D01*
G01*
X167920000Y-73820000D01*
G75*
G02*
X168170000Y-73570000I250000J0D01*
G01*
X168845000Y-73570000D01*
G75*
G02*
X169095000Y-73820000I0J-250000D01*
G01*
G37*
%TD*%
%TO.C,C2*%
G36*
G01*
X169995000Y-102075000D02*
X169995000Y-101125000D01*
G75*
G02*
X170245000Y-100875000I250000J0D01*
G01*
X170920000Y-100875000D01*
G75*
G02*
X171170000Y-101125000I0J-250000D01*
G01*
X171170000Y-102075000D01*
G75*
G02*
X170920000Y-102325000I-250000J0D01*
G01*
X170245000Y-102325000D01*
G75*
G02*
X169995000Y-102075000I0J250000D01*
G01*
G37*
G36*
G01*
X167920000Y-102075000D02*
X167920000Y-101125000D01*
G75*
G02*
X168170000Y-100875000I250000J0D01*
G01*
X168845000Y-100875000D01*
G75*
G02*
X169095000Y-101125000I0J-250000D01*
G01*
X169095000Y-102075000D01*
G75*
G02*
X168845000Y-102325000I-250000J0D01*
G01*
X168170000Y-102325000D01*
G75*
G02*
X167920000Y-102075000I0J250000D01*
G01*
G37*
%TD*%
M02*
