%TF.GenerationSoftware,KiCad,Pcbnew,(5.1.10)-1*%
%TF.CreationDate,2022-03-27T02:24:56-07:00*%
%TF.ProjectId,RC_car,52435f63-6172-42e6-9b69-6361645f7063,rev?*%
%TF.SameCoordinates,Original*%
%TF.FileFunction,Copper,L2,Bot*%
%TF.FilePolarity,Positive*%
%FSLAX46Y46*%
G04 Gerber Fmt 4.6, Leading zero omitted, Abs format (unit mm)*
G04 Created by KiCad (PCBNEW (5.1.10)-1) date 2022-03-27 02:24:56*
%MOMM*%
%LPD*%
G01*
G04 APERTURE LIST*
%TA.AperFunction,ComponentPad*%
%ADD10R,1.700000X1.700000*%
%TD*%
%TA.AperFunction,ComponentPad*%
%ADD11O,1.700000X1.700000*%
%TD*%
%TA.AperFunction,ComponentPad*%
%ADD12R,1.600000X1.600000*%
%TD*%
%TA.AperFunction,ComponentPad*%
%ADD13O,1.600000X1.600000*%
%TD*%
%TA.AperFunction,Conductor*%
%ADD14C,0.250000*%
%TD*%
G04 APERTURE END LIST*
D10*
%TO.P,IMU1,1*%
%TO.N,IMU_VCC*%
X168452800Y-78003400D03*
D11*
%TO.P,IMU1,8*%
%TO.N,Net-(IMU1-Pad8)*%
X168452800Y-95783400D03*
%TO.P,IMU1,7*%
%TO.N,Net-(IMU1-Pad7)*%
X168452800Y-93243400D03*
%TO.P,IMU1,5*%
%TO.N,Net-(IMU1-Pad5)*%
X168452800Y-88163400D03*
%TO.P,IMU1,4*%
%TO.N,IMU_SDA*%
X168452800Y-85623400D03*
%TO.P,IMU1,3*%
%TO.N,IMU_SCL*%
X168452800Y-83083400D03*
%TO.P,IMU1,6*%
%TO.N,Net-(IMU1-Pad6)*%
X168452800Y-90703400D03*
%TO.P,IMU1,2*%
%TO.N,GND*%
X168452800Y-80543400D03*
%TD*%
%TO.P,RADIO1,3*%
%TO.N,NRF_CE*%
X168275000Y-107899200D03*
%TO.P,RADIO1,2*%
%TO.N,NRF_VCC*%
X170815000Y-105359200D03*
D10*
%TO.P,RADIO1,1*%
%TO.N,GND*%
X168275000Y-105359200D03*
D11*
%TO.P,RADIO1,6*%
%TO.N,NRF_MOSI*%
X170815000Y-110439200D03*
%TO.P,RADIO1,4*%
%TO.N,NRF_CSN*%
X170815000Y-107899200D03*
%TO.P,RADIO1,5*%
%TO.N,NRF_SCK*%
X168275000Y-110439200D03*
%TO.P,RADIO1,8*%
%TO.N,Net-(RADIO1-Pad8)*%
X170815000Y-112979200D03*
%TO.P,RADIO1,7*%
%TO.N,NRF_MISO*%
X168275000Y-112979200D03*
%TD*%
D12*
%TO.P,Nano1,1*%
%TO.N,Net-(Nano1-Pad1)*%
X146685000Y-76835000D03*
D13*
%TO.P,Nano1,17*%
%TO.N,NRF_VCC*%
X161925000Y-109855000D03*
%TO.P,Nano1,2*%
%TO.N,Net-(Nano1-Pad2)*%
X146685000Y-79375000D03*
%TO.P,Nano1,18*%
%TO.N,Net-(Nano1-Pad18)*%
X161925000Y-107315000D03*
%TO.P,Nano1,3*%
%TO.N,Net-(Nano1-Pad3)*%
X146685000Y-81915000D03*
%TO.P,Nano1,19*%
%TO.N,Net-(Nano1-Pad19)*%
X161925000Y-104775000D03*
%TO.P,Nano1,4*%
%TO.N,GND*%
X146685000Y-84455000D03*
%TO.P,Nano1,20*%
%TO.N,Net-(Nano1-Pad20)*%
X161925000Y-102235000D03*
%TO.P,Nano1,5*%
%TO.N,Net-(Nano1-Pad5)*%
X146685000Y-86995000D03*
%TO.P,Nano1,21*%
%TO.N,Net-(Nano1-Pad21)*%
X161925000Y-99695000D03*
%TO.P,Nano1,6*%
%TO.N,Net-(Nano1-Pad6)*%
X146685000Y-89535000D03*
%TO.P,Nano1,22*%
%TO.N,Net-(Nano1-Pad22)*%
X161925000Y-97155000D03*
%TO.P,Nano1,7*%
%TO.N,Net-(Nano1-Pad7)*%
X146685000Y-92075000D03*
%TO.P,Nano1,23*%
%TO.N,IMU_SDA*%
X161925000Y-94615000D03*
%TO.P,Nano1,8*%
%TO.N,Net-(Nano1-Pad8)*%
X146685000Y-94615000D03*
%TO.P,Nano1,24*%
%TO.N,IMU_SCL*%
X161925000Y-92075000D03*
%TO.P,Nano1,9*%
%TO.N,Net-(Nano1-Pad9)*%
X146685000Y-97155000D03*
%TO.P,Nano1,25*%
%TO.N,Net-(Nano1-Pad25)*%
X161925000Y-89535000D03*
%TO.P,Nano1,10*%
%TO.N,NRF_CE*%
X146685000Y-99695000D03*
%TO.P,Nano1,26*%
%TO.N,Net-(Nano1-Pad26)*%
X161925000Y-86995000D03*
%TO.P,Nano1,11*%
%TO.N,NRF_CSN*%
X146685000Y-102235000D03*
%TO.P,Nano1,27*%
%TO.N,IMU_VCC*%
X161925000Y-84455000D03*
%TO.P,Nano1,12*%
%TO.N,Net-(Nano1-Pad12)*%
X146685000Y-104775000D03*
%TO.P,Nano1,28*%
%TO.N,Net-(Nano1-Pad28)*%
X161925000Y-81915000D03*
%TO.P,Nano1,13*%
%TO.N,Net-(Nano1-Pad13)*%
X146685000Y-107315000D03*
%TO.P,Nano1,29*%
%TO.N,GND*%
X161925000Y-79375000D03*
%TO.P,Nano1,14*%
%TO.N,NRF_MOSI*%
X146685000Y-109855000D03*
%TO.P,Nano1,30*%
%TO.N,Net-(Nano1-Pad30)*%
X161925000Y-76835000D03*
%TO.P,Nano1,15*%
%TO.N,NRF_MISO*%
X146685000Y-112395000D03*
%TO.P,Nano1,16*%
%TO.N,NRF_SCK*%
X161925000Y-112395000D03*
%TD*%
D14*
%TO.N,NRF_VCC*%
X163830000Y-109855000D02*
X161925000Y-109855000D01*
X165100000Y-108585000D02*
X163830000Y-109855000D01*
X165100000Y-104775000D02*
X165100000Y-108585000D01*
X167005000Y-102870000D02*
X165100000Y-104775000D01*
X169545000Y-102870000D02*
X167005000Y-102870000D01*
X170815000Y-104140000D02*
X169545000Y-102870000D01*
X170815000Y-105359200D02*
X170815000Y-104140000D01*
%TO.N,IMU_SDA*%
X161925000Y-94615000D02*
X161926410Y-94615000D01*
X168452800Y-85623400D02*
X167106600Y-85623400D01*
X167106600Y-85623400D02*
X165100000Y-87630000D01*
X165100000Y-91440000D02*
X161925000Y-94615000D01*
X165100000Y-87630000D02*
X165100000Y-91440000D01*
%TO.N,IMU_SCL*%
X168452800Y-83083400D02*
X164465000Y-87071200D01*
X164465000Y-89535000D02*
X161925000Y-92075000D01*
X164465000Y-87071200D02*
X164465000Y-89535000D01*
%TO.N,NRF_CE*%
X146685000Y-99695000D02*
X148590000Y-99695000D01*
X148590000Y-99695000D02*
X151130000Y-102235000D01*
X151130000Y-102235000D02*
X151130000Y-111125000D01*
X151130000Y-111760000D02*
X154305000Y-114935000D01*
X154305000Y-114935000D02*
X163830000Y-114935000D01*
X163830000Y-114935000D02*
X165735000Y-113030000D01*
X165735000Y-112395000D02*
X165735000Y-109220000D01*
X167055800Y-107899200D02*
X168275000Y-107899200D01*
X165735000Y-109220000D02*
X167055800Y-107899200D01*
X165735000Y-113030000D02*
X165735000Y-112395000D01*
X151130000Y-111760000D02*
X151130000Y-111125000D01*
%TO.N,NRF_CSN*%
X150495000Y-103505000D02*
X149225000Y-102235000D01*
X150495000Y-111946401D02*
X150495000Y-103505000D01*
X149225000Y-102235000D02*
X146685000Y-102235000D01*
X171634991Y-115570000D02*
X154118599Y-115570000D01*
X154118599Y-115570000D02*
X150495000Y-111946401D01*
X172720000Y-109804200D02*
X172720000Y-114484991D01*
X172720000Y-114484991D02*
X171634991Y-115570000D01*
X170815000Y-107899200D02*
X172720000Y-109804200D01*
%TO.N,IMU_VCC*%
X168376600Y-78003400D02*
X161925000Y-84455000D01*
X168452800Y-78003400D02*
X168376600Y-78003400D01*
%TD*%
M02*
