M48
; DRILL file {KiCad (5.1.10)-1} date 03/27/22 02:25:04
; FORMAT={-:-/ absolute / inch / decimal}
; #@! TF.CreationDate,2022-03-27T02:25:04-07:00
; #@! TF.GenerationSoftware,Kicad,Pcbnew,(5.1.10)-1
FMAT,2
INCH
T1C0.0394
%
G90
G05
T1
X5.775Y-3.025
X5.775Y-3.125
X5.775Y-3.225
X5.775Y-3.325
X5.775Y-3.425
X5.775Y-3.525
X5.775Y-3.625
X5.775Y-3.725
X5.775Y-3.825
X5.775Y-3.925
X5.775Y-4.025
X5.775Y-4.125
X5.775Y-4.225
X5.775Y-4.325
X5.775Y-4.425
X6.375Y-3.025
X6.375Y-3.125
X6.375Y-3.225
X6.375Y-3.325
X6.375Y-3.425
X6.375Y-3.525
X6.375Y-3.625
X6.375Y-3.725
X6.375Y-3.825
X6.375Y-3.925
X6.375Y-4.025
X6.375Y-4.125
X6.375Y-4.225
X6.375Y-4.325
X6.375Y-4.425
X6.625Y-4.148
X6.625Y-4.248
X6.625Y-4.348
X6.625Y-4.448
X6.632Y-3.071
X6.632Y-3.171
X6.632Y-3.271
X6.632Y-3.371
X6.632Y-3.471
X6.632Y-3.571
X6.632Y-3.671
X6.632Y-3.771
X6.725Y-4.148
X6.725Y-4.248
X6.725Y-4.348
X6.725Y-4.448
T0
M30
