%TF.GenerationSoftware,KiCad,Pcbnew,(5.1.10)-1*%
%TF.CreationDate,2022-03-27T02:24:56-07:00*%
%TF.ProjectId,RC_car,52435f63-6172-42e6-9b69-6361645f7063,rev?*%
%TF.SameCoordinates,Original*%
%TF.FileFunction,Copper,L1,Top*%
%TF.FilePolarity,Positive*%
%FSLAX46Y46*%
G04 Gerber Fmt 4.6, Leading zero omitted, Abs format (unit mm)*
G04 Created by KiCad (PCBNEW (5.1.10)-1) date 2022-03-27 02:24:56*
%MOMM*%
%LPD*%
G01*
G04 APERTURE LIST*
%TA.AperFunction,ComponentPad*%
%ADD10R,1.700000X1.700000*%
%TD*%
%TA.AperFunction,ComponentPad*%
%ADD11O,1.700000X1.700000*%
%TD*%
%TA.AperFunction,ComponentPad*%
%ADD12R,1.600000X1.600000*%
%TD*%
%TA.AperFunction,ComponentPad*%
%ADD13O,1.600000X1.600000*%
%TD*%
%TA.AperFunction,Conductor*%
%ADD14C,0.250000*%
%TD*%
G04 APERTURE END LIST*
D10*
%TO.P,IMU1,1*%
%TO.N,IMU_VCC*%
X168452800Y-78003400D03*
D11*
%TO.P,IMU1,8*%
%TO.N,Net-(IMU1-Pad8)*%
X168452800Y-95783400D03*
%TO.P,IMU1,7*%
%TO.N,Net-(IMU1-Pad7)*%
X168452800Y-93243400D03*
%TO.P,IMU1,5*%
%TO.N,Net-(IMU1-Pad5)*%
X168452800Y-88163400D03*
%TO.P,IMU1,4*%
%TO.N,IMU_SDA*%
X168452800Y-85623400D03*
%TO.P,IMU1,3*%
%TO.N,IMU_SCL*%
X168452800Y-83083400D03*
%TO.P,IMU1,6*%
%TO.N,Net-(IMU1-Pad6)*%
X168452800Y-90703400D03*
%TO.P,IMU1,2*%
%TO.N,GND*%
X168452800Y-80543400D03*
%TD*%
%TO.P,RADIO1,3*%
%TO.N,NRF_CE*%
X168275000Y-107899200D03*
%TO.P,RADIO1,2*%
%TO.N,NRF_VCC*%
X170815000Y-105359200D03*
D10*
%TO.P,RADIO1,1*%
%TO.N,GND*%
X168275000Y-105359200D03*
D11*
%TO.P,RADIO1,6*%
%TO.N,NRF_MOSI*%
X170815000Y-110439200D03*
%TO.P,RADIO1,4*%
%TO.N,NRF_CSN*%
X170815000Y-107899200D03*
%TO.P,RADIO1,5*%
%TO.N,NRF_SCK*%
X168275000Y-110439200D03*
%TO.P,RADIO1,8*%
%TO.N,Net-(RADIO1-Pad8)*%
X170815000Y-112979200D03*
%TO.P,RADIO1,7*%
%TO.N,NRF_MISO*%
X168275000Y-112979200D03*
%TD*%
D12*
%TO.P,Nano1,1*%
%TO.N,Net-(Nano1-Pad1)*%
X146685000Y-76835000D03*
D13*
%TO.P,Nano1,17*%
%TO.N,NRF_VCC*%
X161925000Y-109855000D03*
%TO.P,Nano1,2*%
%TO.N,Net-(Nano1-Pad2)*%
X146685000Y-79375000D03*
%TO.P,Nano1,18*%
%TO.N,Net-(Nano1-Pad18)*%
X161925000Y-107315000D03*
%TO.P,Nano1,3*%
%TO.N,Net-(Nano1-Pad3)*%
X146685000Y-81915000D03*
%TO.P,Nano1,19*%
%TO.N,Net-(Nano1-Pad19)*%
X161925000Y-104775000D03*
%TO.P,Nano1,4*%
%TO.N,GND*%
X146685000Y-84455000D03*
%TO.P,Nano1,20*%
%TO.N,Net-(Nano1-Pad20)*%
X161925000Y-102235000D03*
%TO.P,Nano1,5*%
%TO.N,Net-(Nano1-Pad5)*%
X146685000Y-86995000D03*
%TO.P,Nano1,21*%
%TO.N,Net-(Nano1-Pad21)*%
X161925000Y-99695000D03*
%TO.P,Nano1,6*%
%TO.N,Net-(Nano1-Pad6)*%
X146685000Y-89535000D03*
%TO.P,Nano1,22*%
%TO.N,Net-(Nano1-Pad22)*%
X161925000Y-97155000D03*
%TO.P,Nano1,7*%
%TO.N,Net-(Nano1-Pad7)*%
X146685000Y-92075000D03*
%TO.P,Nano1,23*%
%TO.N,IMU_SDA*%
X161925000Y-94615000D03*
%TO.P,Nano1,8*%
%TO.N,Net-(Nano1-Pad8)*%
X146685000Y-94615000D03*
%TO.P,Nano1,24*%
%TO.N,IMU_SCL*%
X161925000Y-92075000D03*
%TO.P,Nano1,9*%
%TO.N,Net-(Nano1-Pad9)*%
X146685000Y-97155000D03*
%TO.P,Nano1,25*%
%TO.N,Net-(Nano1-Pad25)*%
X161925000Y-89535000D03*
%TO.P,Nano1,10*%
%TO.N,NRF_CE*%
X146685000Y-99695000D03*
%TO.P,Nano1,26*%
%TO.N,Net-(Nano1-Pad26)*%
X161925000Y-86995000D03*
%TO.P,Nano1,11*%
%TO.N,NRF_CSN*%
X146685000Y-102235000D03*
%TO.P,Nano1,27*%
%TO.N,IMU_VCC*%
X161925000Y-84455000D03*
%TO.P,Nano1,12*%
%TO.N,Net-(Nano1-Pad12)*%
X146685000Y-104775000D03*
%TO.P,Nano1,28*%
%TO.N,Net-(Nano1-Pad28)*%
X161925000Y-81915000D03*
%TO.P,Nano1,13*%
%TO.N,Net-(Nano1-Pad13)*%
X146685000Y-107315000D03*
%TO.P,Nano1,29*%
%TO.N,GND*%
X161925000Y-79375000D03*
%TO.P,Nano1,14*%
%TO.N,NRF_MOSI*%
X146685000Y-109855000D03*
%TO.P,Nano1,30*%
%TO.N,Net-(Nano1-Pad30)*%
X161925000Y-76835000D03*
%TO.P,Nano1,15*%
%TO.N,NRF_MISO*%
X146685000Y-112395000D03*
%TO.P,Nano1,16*%
%TO.N,NRF_SCK*%
X161925000Y-112395000D03*
%TD*%
%TO.P,C1,1*%
%TO.N,GND*%
%TA.AperFunction,SMDPad,CuDef*%
G36*
G01*
X171170000Y-73820000D02*
X171170000Y-74770000D01*
G75*
G02*
X170920000Y-75020000I-250000J0D01*
G01*
X170245000Y-75020000D01*
G75*
G02*
X169995000Y-74770000I0J250000D01*
G01*
X169995000Y-73820000D01*
G75*
G02*
X170245000Y-73570000I250000J0D01*
G01*
X170920000Y-73570000D01*
G75*
G02*
X171170000Y-73820000I0J-250000D01*
G01*
G37*
%TD.AperFunction*%
%TO.P,C1,2*%
%TO.N,IMU_VCC*%
%TA.AperFunction,SMDPad,CuDef*%
G36*
G01*
X169095000Y-73820000D02*
X169095000Y-74770000D01*
G75*
G02*
X168845000Y-75020000I-250000J0D01*
G01*
X168170000Y-75020000D01*
G75*
G02*
X167920000Y-74770000I0J250000D01*
G01*
X167920000Y-73820000D01*
G75*
G02*
X168170000Y-73570000I250000J0D01*
G01*
X168845000Y-73570000D01*
G75*
G02*
X169095000Y-73820000I0J-250000D01*
G01*
G37*
%TD.AperFunction*%
%TD*%
%TO.P,C2,2*%
%TO.N,NRF_VCC*%
%TA.AperFunction,SMDPad,CuDef*%
G36*
G01*
X169995000Y-102075000D02*
X169995000Y-101125000D01*
G75*
G02*
X170245000Y-100875000I250000J0D01*
G01*
X170920000Y-100875000D01*
G75*
G02*
X171170000Y-101125000I0J-250000D01*
G01*
X171170000Y-102075000D01*
G75*
G02*
X170920000Y-102325000I-250000J0D01*
G01*
X170245000Y-102325000D01*
G75*
G02*
X169995000Y-102075000I0J250000D01*
G01*
G37*
%TD.AperFunction*%
%TO.P,C2,1*%
%TO.N,GND*%
%TA.AperFunction,SMDPad,CuDef*%
G36*
G01*
X167920000Y-102075000D02*
X167920000Y-101125000D01*
G75*
G02*
X168170000Y-100875000I250000J0D01*
G01*
X168845000Y-100875000D01*
G75*
G02*
X169095000Y-101125000I0J-250000D01*
G01*
X169095000Y-102075000D01*
G75*
G02*
X168845000Y-102325000I-250000J0D01*
G01*
X168170000Y-102325000D01*
G75*
G02*
X167920000Y-102075000I0J250000D01*
G01*
G37*
%TD.AperFunction*%
%TD*%
D14*
%TO.N,NRF_VCC*%
X170815000Y-101832500D02*
X170582500Y-101600000D01*
X170815000Y-105359200D02*
X170815000Y-101832500D01*
%TO.N,GND*%
X168275000Y-101832500D02*
X168507500Y-101600000D01*
X168275000Y-105359200D02*
X168275000Y-101832500D01*
X156845000Y-84455000D02*
X161925000Y-79375000D01*
X146685000Y-84455000D02*
X156845000Y-84455000D01*
X170582500Y-78413700D02*
X170582500Y-74295000D01*
X168452800Y-80543400D02*
X170582500Y-78413700D01*
X161925000Y-79375000D02*
X166370000Y-79375000D01*
X167538400Y-80543400D02*
X168452800Y-80543400D01*
X166370000Y-79375000D02*
X167538400Y-80543400D01*
X168507500Y-101600000D02*
X168507500Y-99927500D01*
X168507500Y-99927500D02*
X165735000Y-97155000D01*
X165735000Y-83185000D02*
X161925000Y-79375000D01*
X165735000Y-97155000D02*
X165735000Y-83185000D01*
%TO.N,IMU_VCC*%
X168452800Y-74349700D02*
X168507500Y-74295000D01*
X168452800Y-78003400D02*
X168452800Y-74349700D01*
%TO.N,NRF_MOSI*%
X146685000Y-109855000D02*
X145415000Y-109855000D01*
X145415000Y-109855000D02*
X144145000Y-111125000D01*
X144145000Y-111125000D02*
X144145000Y-113665000D01*
X145230010Y-114750010D02*
X171634990Y-114750010D01*
X144145000Y-113665000D02*
X145230010Y-114750010D01*
X171634990Y-114750010D02*
X172720000Y-113665000D01*
X172720000Y-113665000D02*
X172720000Y-111125000D01*
X172034200Y-110439200D02*
X170815000Y-110439200D01*
X172720000Y-111125000D02*
X172034200Y-110439200D01*
%TO.N,NRF_MISO*%
X148590000Y-114300000D02*
X146685000Y-112395000D01*
X166954200Y-114300000D02*
X168275000Y-112979200D01*
X148590000Y-114300000D02*
X166954200Y-114300000D01*
%TO.N,NRF_SCK*%
X167119199Y-111595001D02*
X168275000Y-110439200D01*
X162724999Y-111595001D02*
X167119199Y-111595001D01*
X161925000Y-112395000D02*
X162724999Y-111595001D01*
%TD*%
M02*
