%TF.GenerationSoftware,KiCad,Pcbnew,(5.1.10)-1*%
%TF.CreationDate,2022-03-27T02:24:56-07:00*%
%TF.ProjectId,RC_car,52435f63-6172-42e6-9b69-6361645f7063,rev?*%
%TF.SameCoordinates,Original*%
%TF.FileFunction,Legend,Top*%
%TF.FilePolarity,Positive*%
%FSLAX46Y46*%
G04 Gerber Fmt 4.6, Leading zero omitted, Abs format (unit mm)*
G04 Created by KiCad (PCBNEW (5.1.10)-1) date 2022-03-27 02:24:56*
%MOMM*%
%LPD*%
G01*
G04 APERTURE LIST*
%ADD10C,0.120000*%
%ADD11C,0.150000*%
G04 APERTURE END LIST*
D10*
%TO.C,IMU1*%
X168452800Y-76673400D02*
X169782800Y-76673400D01*
X167122800Y-79273400D02*
X169782800Y-79273400D01*
X169782800Y-79273400D02*
X169782800Y-97113400D01*
X169782800Y-76673400D02*
X169782800Y-78003400D01*
X167122800Y-97113400D02*
X169782800Y-97113400D01*
X167122800Y-79273400D02*
X167122800Y-97113400D01*
%TO.C,RADIO1*%
X169545000Y-104029200D02*
X172145000Y-104029200D01*
X166945000Y-105359200D02*
X166945000Y-104029200D01*
X169545000Y-106629200D02*
X169545000Y-104029200D01*
X166945000Y-106629200D02*
X169545000Y-106629200D01*
X166945000Y-104029200D02*
X168275000Y-104029200D01*
X172145000Y-104029200D02*
X172145000Y-114309200D01*
X166945000Y-106629200D02*
X166945000Y-114309200D01*
X166945000Y-114309200D02*
X172145000Y-114309200D01*
%TO.C,Nano1*%
X147955000Y-78105000D02*
X147955000Y-75565000D01*
X147955000Y-75565000D02*
X145285000Y-75565000D01*
X145285000Y-78105000D02*
X145285000Y-116335000D01*
X145285000Y-72895000D02*
X145285000Y-75565000D01*
X160655000Y-75565000D02*
X163325000Y-75565000D01*
X160655000Y-75565000D02*
X160655000Y-113665000D01*
X160655000Y-113665000D02*
X163325000Y-113665000D01*
X147955000Y-78105000D02*
X145285000Y-78105000D01*
X147955000Y-78105000D02*
X147955000Y-113665000D01*
X147955000Y-113665000D02*
X145285000Y-113665000D01*
X145285000Y-116335000D02*
X163325000Y-116335000D01*
X163325000Y-116335000D02*
X163325000Y-72895000D01*
X163325000Y-72895000D02*
X145285000Y-72895000D01*
%TO.C,C1*%
X169806252Y-73560000D02*
X169283748Y-73560000D01*
X169806252Y-75030000D02*
X169283748Y-75030000D01*
%TO.C,C2*%
X169283748Y-100865000D02*
X169806252Y-100865000D01*
X169283748Y-102335000D02*
X169806252Y-102335000D01*
%TO.C,IMU1*%
D11*
X172537380Y-80946428D02*
X171537380Y-80946428D01*
X172537380Y-80470238D02*
X171537380Y-80470238D01*
X172251666Y-80136904D01*
X171537380Y-79803571D01*
X172537380Y-79803571D01*
X171537380Y-79327380D02*
X172346904Y-79327380D01*
X172442142Y-79279761D01*
X172489761Y-79232142D01*
X172537380Y-79136904D01*
X172537380Y-78946428D01*
X172489761Y-78851190D01*
X172442142Y-78803571D01*
X172346904Y-78755952D01*
X171537380Y-78755952D01*
X172537380Y-77755952D02*
X172537380Y-78327380D01*
X172537380Y-78041666D02*
X171537380Y-78041666D01*
X171680238Y-78136904D01*
X171775476Y-78232142D01*
X171823095Y-78327380D01*
%TO.C,RADIO1*%
X173807380Y-109172142D02*
X173331190Y-109505476D01*
X173807380Y-109743571D02*
X172807380Y-109743571D01*
X172807380Y-109362619D01*
X172855000Y-109267380D01*
X172902619Y-109219761D01*
X172997857Y-109172142D01*
X173140714Y-109172142D01*
X173235952Y-109219761D01*
X173283571Y-109267380D01*
X173331190Y-109362619D01*
X173331190Y-109743571D01*
X173521666Y-108791190D02*
X173521666Y-108315000D01*
X173807380Y-108886428D02*
X172807380Y-108553095D01*
X173807380Y-108219761D01*
X173807380Y-107886428D02*
X172807380Y-107886428D01*
X172807380Y-107648333D01*
X172855000Y-107505476D01*
X172950238Y-107410238D01*
X173045476Y-107362619D01*
X173235952Y-107315000D01*
X173378809Y-107315000D01*
X173569285Y-107362619D01*
X173664523Y-107410238D01*
X173759761Y-107505476D01*
X173807380Y-107648333D01*
X173807380Y-107886428D01*
X173807380Y-106886428D02*
X172807380Y-106886428D01*
X172807380Y-106219761D02*
X172807380Y-106029285D01*
X172855000Y-105934047D01*
X172950238Y-105838809D01*
X173140714Y-105791190D01*
X173474047Y-105791190D01*
X173664523Y-105838809D01*
X173759761Y-105934047D01*
X173807380Y-106029285D01*
X173807380Y-106219761D01*
X173759761Y-106315000D01*
X173664523Y-106410238D01*
X173474047Y-106457857D01*
X173140714Y-106457857D01*
X172950238Y-106410238D01*
X172855000Y-106315000D01*
X172807380Y-106219761D01*
X173807380Y-104838809D02*
X173807380Y-105410238D01*
X173807380Y-105124523D02*
X172807380Y-105124523D01*
X172950238Y-105219761D01*
X173045476Y-105315000D01*
X173093095Y-105410238D01*
%TO.C,Nano1*%
X152185952Y-72207380D02*
X152185952Y-71207380D01*
X152757380Y-72207380D01*
X152757380Y-71207380D01*
X153662142Y-72207380D02*
X153662142Y-71683571D01*
X153614523Y-71588333D01*
X153519285Y-71540714D01*
X153328809Y-71540714D01*
X153233571Y-71588333D01*
X153662142Y-72159761D02*
X153566904Y-72207380D01*
X153328809Y-72207380D01*
X153233571Y-72159761D01*
X153185952Y-72064523D01*
X153185952Y-71969285D01*
X153233571Y-71874047D01*
X153328809Y-71826428D01*
X153566904Y-71826428D01*
X153662142Y-71778809D01*
X154138333Y-71540714D02*
X154138333Y-72207380D01*
X154138333Y-71635952D02*
X154185952Y-71588333D01*
X154281190Y-71540714D01*
X154424047Y-71540714D01*
X154519285Y-71588333D01*
X154566904Y-71683571D01*
X154566904Y-72207380D01*
X155185952Y-72207380D02*
X155090714Y-72159761D01*
X155043095Y-72112142D01*
X154995476Y-72016904D01*
X154995476Y-71731190D01*
X155043095Y-71635952D01*
X155090714Y-71588333D01*
X155185952Y-71540714D01*
X155328809Y-71540714D01*
X155424047Y-71588333D01*
X155471666Y-71635952D01*
X155519285Y-71731190D01*
X155519285Y-72016904D01*
X155471666Y-72112142D01*
X155424047Y-72159761D01*
X155328809Y-72207380D01*
X155185952Y-72207380D01*
X156471666Y-72207380D02*
X155900238Y-72207380D01*
X156185952Y-72207380D02*
X156185952Y-71207380D01*
X156090714Y-71350238D01*
X155995476Y-71445476D01*
X155900238Y-71493095D01*
%TO.C,C1*%
X166203333Y-74652142D02*
X166155714Y-74699761D01*
X166012857Y-74747380D01*
X165917619Y-74747380D01*
X165774761Y-74699761D01*
X165679523Y-74604523D01*
X165631904Y-74509285D01*
X165584285Y-74318809D01*
X165584285Y-74175952D01*
X165631904Y-73985476D01*
X165679523Y-73890238D01*
X165774761Y-73795000D01*
X165917619Y-73747380D01*
X166012857Y-73747380D01*
X166155714Y-73795000D01*
X166203333Y-73842619D01*
X167155714Y-74747380D02*
X166584285Y-74747380D01*
X166870000Y-74747380D02*
X166870000Y-73747380D01*
X166774761Y-73890238D01*
X166679523Y-73985476D01*
X166584285Y-74033095D01*
%TO.C,C2*%
X172553333Y-101957142D02*
X172505714Y-102004761D01*
X172362857Y-102052380D01*
X172267619Y-102052380D01*
X172124761Y-102004761D01*
X172029523Y-101909523D01*
X171981904Y-101814285D01*
X171934285Y-101623809D01*
X171934285Y-101480952D01*
X171981904Y-101290476D01*
X172029523Y-101195238D01*
X172124761Y-101100000D01*
X172267619Y-101052380D01*
X172362857Y-101052380D01*
X172505714Y-101100000D01*
X172553333Y-101147619D01*
X172934285Y-101147619D02*
X172981904Y-101100000D01*
X173077142Y-101052380D01*
X173315238Y-101052380D01*
X173410476Y-101100000D01*
X173458095Y-101147619D01*
X173505714Y-101242857D01*
X173505714Y-101338095D01*
X173458095Y-101480952D01*
X172886666Y-102052380D01*
X173505714Y-102052380D01*
%TD*%
M02*
